<svg xmlns="http://www.w3.org/2000/svg" viewBox="0 0 127.39 103.07"><defs><style>.cls-1{fill:#22f3ba;}</style></defs><g id="图层_2" data-name="图层 2"><g id="图层_1-2" data-name="图层 1"><path class="cls-1" d="M43.34,87l-1.4,0-1.15-.61h0a.59.59,0,0,0-.56,0,.29.29,0,0,0-.13.26.51.51,0,0,0,.32.54l1.36.7a.32.32,0,0,0,.09,0l1.69,0h.06a.36.36,0,0,0,.26-.38A.47.47,0,0,0,43.34,87Zm-1.43.46-1.33-.69c-.07,0-.09,0-.1-.09l.13,0,1.19.62a.11.11,0,0,0,.08,0l1.45,0c.13,0,.13,0,.16.09Z"/><path class="cls-1" d="M34.17,77.07a.23.23,0,0,0,.11,0h0a.22.22,0,0,0,.13-.1L43.1,60.57a.21.21,0,0,0-.18-.3l-1,0a.2.2,0,0,0-.16.09C31.42,75.07,31.41,75.09,31.4,75.13S31.34,75.31,34.17,77.07Zm7.9-16.36.52,0L34.2,76.61c-.81-.5-1.93-1.2-2.33-1.47C32.93,73.63,41.29,61.8,42.07,60.71Z"/><path class="cls-1" d="M65.41,84.29l5.55.24h0l.07,0L100.67,72.3a.19.19,0,0,0,.12-.17.19.19,0,0,0-.1-.19l-.67-.36a.18.18,0,0,0-.16,0L65.35,83.9a.2.2,0,0,0-.13.22A.19.19,0,0,0,65.41,84.29ZM99.91,72l.22.12-29.2,12-4.49-.19Z"/><path class="cls-1" d="M125.94,6.25c-.44,0-4.38-.33-4.83-.38a6.82,6.82,0,0,0-1.19,0l-.75.14-.18,0a.43.43,0,0,0-.16,0A1.28,1.28,0,0,0,118,7.32c-.06.57-3.82,53.85-4.14,58.48l-2.54,1.71c-.28-.06-.57-.13-1-.25l-10.26-3-.14,0c.08-10.14.49-59.76.49-60.43a1.37,1.37,0,0,0-1.28-1.48l-5-.36a2.6,2.6,0,0,0-.73,0c-.26,0-.87.15-1,.19-.57.12-.85.53-.87,1.26s-2,42.83-2.66,55.74c0,.16,0,.3,0,.4l-2.73,1.53L75.81,59.25C75.72,53.69,75,2.32,75,1.9,74.89.74,74.21.45,73.65.42L69.31.09a3.32,3.32,0,0,0-.83,0c-.2,0-.9.14-1,.15l-.2,0c-.29.1-.64.37-.66,1.13,0,.59-1.28,49.53-1.4,53.92l-3,1.38-1.89-.35a23.18,23.18,0,0,0-2.75-.29c-1.07-.07-2.56-.2-3.29-.26C54.11,50.66,52.43,2,52.42,1.69A1.44,1.44,0,0,0,51.19.32L48.42.11,47,0c-.2,0-1,.08-1.57.16a1,1,0,0,0-.26.06h0a.73.73,0,0,0-.23.13l-.09.09a.86.86,0,0,0-.15.22.49.49,0,0,1,0,.11,1.34,1.34,0,0,0-.05.35c0,.36-.37,47.42-.4,51.84l-3.21,1.36c-.45-.11-1.2-.25-2.43-.49,0,0-2.75-.49-4.35.43S1.7,72.4,1.46,72.53A2.35,2.35,0,0,0,0,74.63s0,.11,0,.11L.4,77.53a2.08,2.08,0,0,0,1.28,1.33L15,84.34c.37.16,1.15.36,1.84.55l.48.12c.28.08,63.21,16.37,67.32,17.4a20.68,20.68,0,0,0,5,.66,18.28,18.28,0,0,0,3.67-.37A8.93,8.93,0,0,0,97.27,101c.43-.31,9.09-6.85,14.82-11.18L117,86.14a1.78,1.78,0,0,0,.65-.76c0-.08.36-.78.84-1.79,4-8.46,4.31-9.16,4.34-9.25a2.9,2.9,0,0,0,.07-.34l2.31-1.81a.54.54,0,0,0,.19-.37c.08-2.59,2-63.25,2-64A1.43,1.43,0,0,0,125.94,6.25ZM96.73,99.49A8.19,8.19,0,0,1,93,100.7a12,12,0,0,1-3.94-.28c-1.26-.3-71.55-18.19-84.59-21.51l-2.39-1a1.49,1.49,0,0,1-.67-.54c0-.08-.12-.91-.23-1.66l.2.09c.91.27,87.08,21.67,87.86,21.85a9.86,9.86,0,0,0,2.31.23,14.23,14.23,0,0,0,2.55-.22A6.75,6.75,0,0,0,97.61,96l24.65-24.18c0,.34,0,.67,0,.95l0,.35v.15l-.06.05a.53.53,0,0,0-.26.4,1.57,1.57,0,0,1,0,.32c0,.07-.18.41-.42.93C117.53,78.81,97.4,98.92,96.73,99.49ZM120.91,76l-3.38,7.17c-.47,1-.8,1.71-.84,1.78a.8.8,0,0,1-.34.39L111.49,89,96.61,100.23a7.74,7.74,0,0,1-3.45,1.49,18.09,18.09,0,0,1-8.28-.28c-4.11-1-67-17.32-67.3-17.39l-.49-.13c-.62-.17-1.4-.37-1.7-.5L7.07,80c18,4.59,80.69,20.54,81.88,20.82a12,12,0,0,0,2.87.34c.4,0,.79,0,1.2-.05a8.52,8.52,0,0,0,4-1.3C97.65,99.24,115.62,81.29,120.91,76ZM1,74.56c0-.53.58-1,1-1.16S33.2,56,34.65,55.14a4.82,4.82,0,0,1,2.25-.43,7.89,7.89,0,0,1,1.41.11l2.63.5h0a.5.5,0,0,0,.34-.06l.3-.12,2.07.39h.09l1.12.21h0l.37.07h0l.23,0h0l.11,0c.32,0,3.06.22,3.17.23l4.54.37a.52.52,0,0,0,.42.32s2.27.2,3.76.3a19.77,19.77,0,0,1,2.64.28l2,.37a.5.5,0,0,0,.3,0l.33-.15,12,2.21a.49.49,0,0,0,.39.38l10.91,2a.48.48,0,0,0,.33-.06l.25-.14L92.46,63l.5.09h0c.56.11,1.23.25,1.71.38h0l.28.08,2.36.67,1.6.46a.48.48,0,0,0,.34.41l.5.15L110,68.22a11.23,11.23,0,0,0,1.28.31.48.48,0,0,0,.37-.07l.19-.13c1.39.26,7.1,1.31,8.81,1.64s1.61.91,1.59,1.24l-25,24.48A6.24,6.24,0,0,1,94,97.28a12.47,12.47,0,0,1-4.68,0C88.54,97.1,2.39,75.71,1.48,75.43a1.13,1.13,0,0,1-.38-.19C1.05,74.94,1,74.69,1,74.56ZM45.15,53.3c0-2.08.39-50.44.39-52.15l.3,0,1.79.14L49,54.54l-3.77-.68L45,53.6A.64.64,0,0,0,45.15,53.3Zm6-52c.21,0,.3.37.3.37h0C51.43,2,52.85,43,53.3,56.06l-3.66-.29,2.26-1v0A.18.18,0,0,0,52,54.6L51.11,1.93a1,1,0,0,0-.26-.63ZM45.59,55.47h-.15L42.5,54.9l.46-.19,4.85.91,0,0-2.1-.15h0Zm-.71-1.33a.21.21,0,0,0,.14.1l4.16.74,1.5-.1-1.9.83-.28,0a.21.21,0,0,0,.08-.19.2.2,0,0,0-.16-.17l-5-.95,1.32-.56Zm4.48.43L48,1.27h1.91c.24,0,.77.26.77.66l.91,52.49ZM73.59,1.41c.22,0,.34.05.37.54s.78,53,.85,57.42l-1.31-.24L72,58.86l-1.28-.23,2.79-1.38h0a.2.2,0,0,0,.12-.17c0-2.23,0-54.74,0-55.12a.82.82,0,0,0-.25-.54Zm19,1.81-.1-.28h.05l.19.26.12,0L90,60.28l-.16-.17a.42.42,0,0,0,0-.15l0-.69c.79-16.55,2.65-55.11,2.66-55.76C92.55,3.26,92.59,3.2,92.56,3.22ZM99,3.36c.26,0,.37.17.37.49,0,.67-.41,50.4-.49,60.45l-.07,0-2.33-.67-1.29-.37L98,61.61a.21.21,0,0,0,.1-.17c0-2.33,1.22-57,1.2-57.5A.84.84,0,0,0,99,3.36Zm-5.4,59.5-.58-.12h0l-.5-.09-4.78-.88.39-.21,6,1.09-.36.24-.09,0ZM93.23,3.15l2.44.18-.83,58.08-4.49-.82Zm2.84.19h2c.23,0,.79.27.8.6,0,.58-1.12,53.84-1.2,57.3l-2.42.18ZM90,60.89a.24.24,0,0,0,.11.06l4.9.9h0l2-.15-2.34,1.4-.41-.1.44-.31a.2.2,0,0,0-.07-.36l-6.46-1.18,1.33-.74ZM69.18,58.33l-5.37-1,.43-.19,5.31,1ZM68,1.23l2.17.15L70.53,57l-4.06-.69ZM70.93,57,70.6,1.39l2,0c.27,0,.74.34.74.6s0,51.4,0,54.93ZM67.61,1.47c0-.09,0-.13,0-.17l-.07,2.58C67.59,2.42,67.61,1.54,67.61,1.47ZM66.1,56.6a.26.26,0,0,0,.13.08l4.51.75,1.75-.1L70.11,58.5l-.3,0,.44-.23a.19.19,0,0,0,.1-.2.18.18,0,0,0-.16-.17l-5.68-1.06,1.3-.6Zm57.29,11-2.44.19L123.1,7.24c.4,0,1.39,0,2,0a.89.89,0,0,1,.87.95C126,8.62,123.54,64,123.39,67.58ZM120,7l2.67.19-2.15,60.51-5-.92ZM119,7.42c0-.32.09-.35.22-.39h0l.13,0,.24,0,.06,0-4.42,59.61-.43-.37a.29.29,0,0,0,0-.1C114.86,65.53,118.91,8.11,119,7.42Zm-3.71,59.72a.19.19,0,0,0,.09,0l5.36,1h.05L122.9,68l-2.13,1.56h0l-.53-.1.43-.32a.18.18,0,0,0,.08-.2.19.19,0,0,0-.16-.15l-7.14-1.41a.17.17,0,0,0-.14,0l-.92.6h0l2.19-1.48Zm4.44,2.24c-1.86-.36-5-.93-6.73-1.26l.49-.32,6.61,1.31Zm2.91,3.54v-.16c0-.44,0-1,.06-1.55s-.1-1.12-1.41-1.5l2.43-1.79h0a.17.17,0,0,0,.09-.14s2.58-59.12,2.59-59.56a1.32,1.32,0,0,0-.33-.93c.28,0,.36.23.35.5,0,.74-1.9,59.56-2,63.77Z"/></g></g></svg>