<?xml version="1.0" encoding="utf-8"?>
<!-- Generator: Adobe Illustrator 23.0.2, SVG Export Plug-In . SVG Version: 6.00 Build 0)  -->
<svg version="1.0" id="Layer_1" xmlns="http://www.w3.org/2000/svg" xmlns:xlink="http://www.w3.org/1999/xlink" x="0px" y="0px"
	 viewBox="0 0 150 150" style="enable-background:new 0 0 150 150;" xml:space="preserve">
<style type="text/css">
	.st0{fill:#22F4BB;}
	.st1{fill:#2D3341;}
</style>
<path class="st0" d="M111,36.3c-12.8,0-24.6-1.9-34.3-5c-1.1-0.4-2.3-0.4-3.4,0c-9.7,3.2-21.5,5-34.3,5h-3c-2.8-0.1-5.2,2-5.5,4.8
	c-0.3,3-0.5,6-0.5,9.1c0,31.5,17.8,58.3,42.9,68.7c1.4,0.6,2.9,0.6,4.3,0c25-10.4,42.9-37.2,42.9-68.7c0-3.1-0.2-6.1-0.5-9.1
	c-0.3-2.8-2.7-4.9-5.5-4.8H111z"/>
<path class="st1" d="M73.2,101H73c-0.9,0-1.7-0.4-2.3-1.1l-6.6-7.4c-1.2-1.4-1.1-3.4,0.3-4.7c1.4-1.2,3.4-1.1,4.7,0.3l4.4,4.9
	l10.1-9c1.4-1.2,3.4-1.1,4.7,0.3c1.2,1.4,1.1,3.4-0.3,4.7l-12.6,11.3C74.8,100.7,73.9,101,73.2,101z M61.3,74L60,70.2h-7.8L50.9,74
	h-4.4l7.9-21.8h3.3l8,21.8H61.3z M56.2,58.6l-2.8,7.9h5.4L56.2,58.6z M81.5,71.7c-1.6,1.6-3.6,2.5-6.1,2.5c-2.4,0-4.4-0.9-5.9-2.4
	c-2.2-2.2-2.1-4.9-2.1-8.7c0-3.8-0.1-6.5,2.1-8.7c1.5-1.5,3.4-2.4,5.9-2.4c3,0,4.7,0.8,6.7,2.8l-2.9,2.9c-1.2-1.2-2.1-1.9-3.8-1.9
	c-1.2,0-2.1,0.5-2.7,1.2c-0.8,0.9-1,1.9-1,6.1s0.2,5.2,1,6.2c0.6,0.7,1.6,1.1,2.7,1.1c1.3,0,2.2-0.5,2.9-1.2c0.7-0.8,1-1.9,1-3v-0.8
	h-3.9v-3.6h8.1V65C83.5,68.2,83,70.1,81.5,71.7z M99.3,74v-9.1h-7.4V74h-4.3V52.2h4.3v8.9h7.4v-8.9h4.3V74H99.3z"/>
</svg>
