<?xml version="1.0" encoding="utf-8"?>
<!-- Generator: Adobe Illustrator 23.0.2, SVG Export Plug-In . SVG Version: 6.00 Build 0)  -->
<svg version="1.1" id="Layer_1" xmlns="http://www.w3.org/2000/svg" xmlns:xlink="http://www.w3.org/1999/xlink" x="0px" y="0px"
	 viewBox="0 0 366 255.1" style="enable-background:new 0 0 366 255.1;" xml:space="preserve">
<style type="text/css">
	.st0{fill:#22F4BB;}
</style>
<g>
	<path class="st0" d="M53.6,147.8l-5.8-87.4c-0.1-0.7-1.9-17.8,6.4-26.3c8.1-8.2,13.6-4.9,14.6-4.1c1.1,0.6,7.1,4.3,8,17.9
		c0.9,14,4.6,75.7,4.6,76.3l-2.7,0.2c0-0.6-3.7-62.3-4.6-76.3c-0.8-13-6.5-15.7-6.6-15.8l-0.2-0.1l-0.2-0.1
		c-0.2-0.1-4.2-3.2-11.1,3.8c-7.5,7.6-5.7,24-5.7,24.2l5.8,87.4L53.6,147.8z"/>
	<g>
		<path class="st0" d="M270.9,217.1l-3.2,2.8c0,0-3.3,2.9-8,3.6c-3.2,0.5-6.1,0.9-8.9,0.4L72.6,189.6c-4.7-0.9-8.9-3.2-11.9-6.5
			c-2-2.2-3.5-4.5-4.5-6.3c-5.8-19.6,1.2-34,5.7-38.8c5.4-5.8,11.6-7.9,11.7-7.9l60.1-31.6c0,0,4.1-1.6,7.8-1
			c4.1,0.7,113.7,16.2,118.4,16.9l0.3,0c0-0.9,0-1.8,0-2.7C256.8,111.3,146,95.6,142,94.9c-4.4-0.8-9,1-9.3,1.2l-60,31.5
			c-0.9,0.3-7.2,2.7-12.7,8.6c-3.4,3.6-7.6,11.2-8.5,21.7c-0.1-0.6-0.1-1.3-0.2-2c-1-14.1-6.9-98.3-6.9-98.3c0-0.1-0.1-6.3,0.8-10.5
			c1.7-7.8,4.3-12.2,8.5-14.5c4.8-2.6,10.8-1.1,10.9-1.1l0.7-2.6c-0.3-0.1-7.1-1.8-12.8,1.3c-6.3,3.4-8.5,10.5-9.8,16.3
			c-1,4.6-0.9,10.9-0.9,11.2c0,0,6,84.3,6.9,98.4c0.9,13,3.1,17.7,3.6,18.6c0.3,0.8,2.2,5.7,6.4,10.3c3.4,3.7,8.2,6.3,13.4,7.3
			l178.3,34.3c1.1,0.2,2.3,0.3,3.4,0.3c2.1,0,4.2-0.3,6.4-0.7c5.4-0.9,9.1-4.1,9.3-4.3l5.8-5.2C273.9,217.2,272.5,217.2,270.9,217.1
			z"/>
		<path class="st0" d="M318.6,124c-6.2-4.9-14.8-6.1-15.2-6.1l-15.5-2.2c0,0.9,0,1.8,0,2.7l15.2,2.2c0.1,0,8.3,1.1,13.9,5.6
			c5.4,4.2,5.6,20.8,3.1,34.2c-2,10.8-6.2,15.6-8.7,18.4l-0.2,0.3c-2.5,2.8-16.5,16.9-16.6,17l-9.9,8.9c-0.7,2.2-1.6,4.1-2.5,5.8
			l14.2-12.7c0.6-0.6,14.3-14.3,16.8-17.2l0.2-0.3c2.7-3,7.1-8.1,9.3-19.7C324.6,150.6,326.2,129.9,318.6,124z"/>
	</g>
	<path class="st0" d="M61.4,186.5c-0.4-0.9-0.8-1.7-1.1-2.5c-2.5-5.5-4.7-10.2-3.6-24.2c1.6-20.2,16-31.4,16.1-31.6l0.9,1.1
		c-0.1,0.1-14.1,11-15.6,30.5c-1.1,13.6,0.9,18,3.5,23.5c0.4,0.8,0.8,1.7,1.1,2.5L61.4,186.5z"/>
	
		<rect x="66" y="161.9" transform="matrix(0.1654 -0.9862 0.9862 0.1654 -113.3328 208.7504)" class="st0" width="1.4" height="18.9"/>
	
		<rect x="233.9" y="191" transform="matrix(0.1801 -0.9836 0.9836 0.1801 -6.4207 396.4972)" class="st0" width="1.4" height="22.2"/>
	<path class="st0" d="M220.2,202.7c-0.2,0-0.5,0-0.7-0.1L78.6,177.2c-1.8-0.3-3.1-1.9-3.1-3.7c0-1.1,0.5-2.2,1.4-2.9
		c0.9-0.7,2-1,3.1-0.8l140.9,25.5c1.8,0.3,3.1,1.9,3.1,3.7c0,1.1-0.5,2.2-1.4,2.9C221.9,202.4,221,202.7,220.2,202.7z M219.7,201.3
		c0.7,0.1,1.4-0.1,1.9-0.5c0.5-0.5,0.8-1.1,0.8-1.8c0-1.1-0.8-2.1-1.9-2.3L79.7,171.1c-0.7-0.1-1.4,0.1-1.9,0.5
		c-0.5,0.5-0.8,1.1-0.8,1.8c0,1.1,0.8,2.1,1.9,2.3L219.7,201.3z"/>
	<path class="st0" d="M93.3,197.7c-0.5,0-1,0-1.4-0.1c-3.1-0.4-6.8-3.7-6.9-3.8l0.7-0.8c0,0,3.6,3.1,6.4,3.5
		c2.8,0.4,7.5-0.9,7.6-0.9l0.3,1.1C99.8,196.8,96.2,197.7,93.3,197.7z"/>
	<path class="st0" d="M231.2,224.9c-0.5,0-1.1,0-1.7-0.1c-4.5-0.6-6.3-4.4-6.3-4.6l1-0.4c0.1,0.1,1.6,3.5,5.5,3.9
		c4.1,0.5,8.7-1.3,8.7-1.4l0.4,1C238.7,223.5,235,224.9,231.2,224.9z"/>
	<g>
		<path class="st0" d="M287.8,137.4l21-16.6l-0.7-0.9l-20.3,16C287.8,136.5,287.8,137,287.8,137.4z"/>
		<path class="st0" d="M260.5,159.5c0-0.5,0-1,0-1.6c-3,3-5.5,6.5-7.3,10.3c-4.7,9.6-9.8,24-7.8,37.7c2.2,15.4,7.4,19.7,7.6,19.9
			l0.7-0.9c-0.1,0-5.1-4.3-7.2-19.2c-1.9-13.5,3.1-27.6,7.7-37.1C255.7,165.4,257.9,162.3,260.5,159.5z"/>
	</g>
	<path class="st0" d="M287.7,162.9l2.4-11.1l-1.5,1.2c0,0-0.9,3.3-0.9,3.4L287.7,162.9"/>
	<polygon class="st0" points="289.1,171.6 294.5,148.3 293,149.5 289,165.6 	"/>
	<polygon class="st0" points="290.4,173.3 296.8,146.3 298.4,145 292.3,171.7 	"/>
	<polygon class="st0" points="295.1,169.4 301.5,142.5 303.1,141.2 297,167.9 	"/>
	<polygon class="st0" points="299.5,165 305.6,139.1 307.2,137.8 301.2,164.2 	"/>
	<polygon class="st0" points="302.7,166.5 309.7,135.7 311.3,134.3 302.8,170.7 	"/>
	<polygon class="st0" points="313.4,133.1 303.3,176.6 303.4,179.6 304,178.9 314.9,132 	"/>
	<path class="st0" d="M264.4,223.8c-0.5,0-1.2-0.1-2-0.6c-1.9-1.1-4.5-4.3-6.4-13.1c-3.8-17.7,4-32.8,4.1-33l1,0.5
		c-0.1,0.1-7.7,15-4,32.3c1.8,8.3,4.1,11.3,5.8,12.3c1.1,0.6,1.8,0.5,1.8,0.5l0.3,1C265,223.8,264.8,223.8,264.4,223.8z"/>
	<path class="st0" d="M288.2,148.8l-0.7-0.8l25.7-21.3c1.7-1.4,3.2-1.8,4.6-1.4c2.4,0.8,3.7,4,4.4,6.6c1.1,4.2,1.3,8.3,1.4,12.2
		l-1.1,0c-0.1-3.8-0.2-7.9-1.3-11.9c-0.9-3.3-2.2-5.4-3.7-5.8c-1-0.3-2.2,0.1-3.6,1.2L288.2,148.8z"/>
	<polygon class="st0" points="316.1,134.2 307.2,173.1 308.5,172.1 316.9,135.2 	"/>
	<polygon class="st0" points="318.3,137.9 310.9,169.3 312.4,168.3 318.8,140.2 	"/>
	<path class="st0" d="M319.2,146.5l-4,17.6c0,0,2.3-5.7,3.3-10C319.5,149.9,319.2,146.5,319.2,146.5z"/>
	<g>
		<g>
			<g>
				<path class="st0" d="M289.5,186.7l-1.9-0.6c-0.7-0.6-1.2-1.6-1.1-2.8c0-2.1,1.4-4,2.9-4.4l0,0l1.5,0.2l-0.1,0.5l-1.4-0.2
					c-1.3,0.3-2.4,2-2.5,3.8c0,1,0.3,1.9,0.9,2.3l1.7,0.6L289.5,186.7z"/>
				<g>
					<path class="st0" d="M289.5,186.6l-1.8-0.6c-0.7-0.5-1.1-1.5-1.1-2.6c0-2,1.3-3.9,2.8-4.2l0,0l0,0l1.5,0.2l0,0.2l-1.4-0.2
						c-1.4,0.3-2.6,2.1-2.6,4c0,1.1,0.3,2,1,2.5l1.8,0.6L289.5,186.6z"/>
					<path class="st0" d="M289.7,186.9l-2.2-0.7c-0.8-0.6-1.2-1.6-1.2-2.9c0-2.1,1.4-4.1,3-4.5l0,0l0.1,0l1.7,0.2l-0.1,0.7l-1.7-0.2
						c-1.3,0.3-2.4,2-2.4,3.7c0,1,0.3,1.8,0.8,2.2l2,0.6L289.7,186.9z"/>
				</g>
			</g>
			<g>
				<path class="st0" d="M289.9,186.8c-0.5,0-1-0.2-1.4-0.5c-0.7-0.6-1.1-1.6-1.1-2.8c0-2.1,1.4-4,2.9-4.4c0.7-0.2,1.3,0,1.9,0.4
					c0.7,0.6,1.1,1.6,1.1,2.8c0,2.1-1.4,4-2.9,4.4C290.2,186.8,290.1,186.8,289.9,186.8z M290.9,179.7c-0.1,0-0.3,0-0.4,0
					c-1.4,0.3-2.5,2-2.5,3.8c0,1,0.3,1.8,0.9,2.3c0.4,0.3,0.9,0.4,1.4,0.3c1.4-0.3,2.5-2,2.5-3.8l0.3,0l-0.3,0c0-1-0.3-1.8-0.9-2.3
					C291.6,179.8,291.3,179.7,290.9,179.7z"/>
				<g>
					<path class="st0" d="M290.1,186.6c-0.5,0.1-1-0.1-1.4-0.4c-0.7-0.5-1-1.5-1-2.6c0-2,1.3-3.9,2.8-4.2c0.6-0.1,1.2,0,1.7,0.4
						c0.7,0.5,1,1.5,1,2.6c0,2-1.3,3.9-2.8,4.2C290.3,186.6,290.2,186.6,290.1,186.6z M290.7,179.5c-0.1,0-0.2,0-0.2,0
						c-1.4,0.3-2.6,2.1-2.7,4c0,1.1,0.3,2,1,2.5c0.4,0.4,1,0.5,1.6,0.4c1.4-0.3,2.6-2.1,2.7-4c0-1.1-0.3-2-0.9-2.5
						C291.6,179.6,291.2,179.4,290.7,179.5z"/>
					<path class="st0" d="M289.9,186.9c-0.5,0-1-0.2-1.4-0.5c-0.7-0.6-1.1-1.6-1.1-2.8c0-2.1,1.4-4.1,3-4.5c0.7-0.2,1.4,0,1.9,0.4
						c0.7,0.6,1.1,1.6,1.1,2.8c0,2.1-1.4,4.1-3,4.5c-0.1,0-0.2,0-0.3,0h0C290,186.9,290,186.9,289.9,186.9z M290.9,179.8
						c-0.1,0-0.1,0-0.2,0l0,0c-0.1,0-0.1,0-0.2,0c-1.3,0.3-2.4,2-2.4,3.8c0,1,0.3,1.8,0.8,2.2c0.4,0.3,0.8,0.4,1.3,0.3
						c1.3-0.3,2.4-2,2.4-3.8c0-1-0.3-1.8-0.8-2.2C291.6,179.9,291.3,179.8,290.9,179.8z"/>
				</g>
			</g>
		</g>
		<g>
			<g>
				<path class="st0" d="M293.3,180.4c-0.1,0-0.3,0-0.4-0.1c-0.2-0.1-0.3-0.4-0.2-0.6c0-0.5,0.3-0.9,0.7-1c0.2,0,0.3,0,0.4,0.1
					c0.2,0.1,0.3,0.4,0.2,0.6l0,0C294.1,179.8,293.8,180.3,293.3,180.4C293.4,180.3,293.4,180.4,293.3,180.4z M293.5,178.7
					C293.5,178.7,293.5,178.7,293.5,178.7c-0.4,0.1-0.6,0.5-0.6,0.9c0,0.2,0.1,0.4,0.2,0.5c0.1,0.1,0.2,0.1,0.3,0.1
					c0.3-0.1,0.6-0.5,0.6-0.9l0,0c0-0.2-0.1-0.4-0.2-0.5C293.7,178.7,293.6,178.7,293.5,178.7z"/>
				<path class="st0" d="M293.3,180.6c-0.2,0-0.3-0.1-0.5-0.2c-0.2-0.2-0.4-0.5-0.3-0.8c0-0.6,0.4-1.2,0.9-1.3
					c0.2-0.1,0.5,0,0.7,0.2c0.2,0.2,0.4,0.5,0.3,0.8c0,0.6-0.4,1.2-0.9,1.3L293.3,180.6C293.3,180.6,293.3,180.6,293.3,180.6z
					 M293.5,179c-0.2,0-0.4,0.3-0.4,0.6c0,0.1,0,0.3,0.1,0.3c0,0,0,0,0.1,0c0.2,0,0.4-0.3,0.4-0.6
					C293.7,179.2,293.7,179.1,293.5,179C293.6,179,293.6,179,293.5,179L293.5,179z"/>
			</g>
		</g>
		<g>
			<path class="st0" d="M298.7,179.2c-0.4,0-0.7-0.1-1.1-0.3c-0.7-0.5-1.2-1.3-1.3-2.4c-0.2-1.9,0.8-3.8,2.2-4.3
				c0.6-0.2,1.2-0.1,1.8,0.2c0.7,0.5,1.2,1.3,1.3,2.4l0,0c0.2,1.9-0.8,3.8-2.2,4.3C299.2,179.1,299,179.2,298.7,179.2z M299.3,172.6
				c-0.2,0-0.3,0-0.5,0.1c-1.2,0.4-2,2.1-1.9,3.7c0.1,0.9,0.5,1.6,1,2c0.4,0.2,0.8,0.3,1.3,0.1c1.2-0.4,2-2.1,1.9-3.7l0,0
				c-0.1-0.9-0.5-1.6-1-2C299.8,172.6,299.6,172.6,299.3,172.6z"/>
			<g>
				<path class="st0" d="M297.6,178.5c-0.2,0-0.3,0.1-0.5,0c-0.4-0.1-0.8-0.7-1-1.5c-0.4-1.6,0.2-3.8,1.3-4.7l4-3.5
					c0.1-0.1,0.2-0.2,0.2-0.4c0-0.2,0-0.3-0.1-0.4c-0.1-0.1-0.2-0.2-0.4-0.2c-0.1,0-0.3,0-0.4,0.1l-4,3.5c-1.4,1.2-2.1,3.8-1.7,5.8
					c0.3,1.2,0.9,2,1.7,2.3c0.3,0.1,0.7,0.1,1,0.1c0.4-0.1,0.8-0.3,1.1-0.6l0.2-0.2C298.6,178.9,298,178.8,297.6,178.5z"/>
				<path class="st0" d="M303,174.7c-0.1-0.1-0.2-0.2-0.4-0.2c-0.2,0-0.3,0-0.4,0.1l-0.8,0.7c0,0.7-0.2,1.3-0.5,1.9l2-1.8
					C303.2,175.2,303.2,174.9,303,174.7z"/>
			</g>
		</g>
		<g>
			<g>
				<path class="st0" d="M298.6,179.1l-1.8-0.4c-0.7-0.4-1.2-1.3-1.3-2.4c-0.2-1.9,0.8-3.8,2.2-4.3l0.1,0l1.3,0v0.5l-1.3,0
					c-1.2,0.4-2,2.1-1.8,3.7c0.1,0.9,0.5,1.6,1,2l1.6,0.3L298.6,179.1z"/>
				<g>
					<path class="st0" d="M298.6,179l-1.7-0.3c-0.7-0.4-1.1-1.3-1.3-2.3c-0.2-1.8,0.8-3.7,2.1-4.1l0,0l0,0l1.3,0l0,0.2l-1.3,0
						c-1.3,0.5-2.1,2.2-2,3.9c0.1,1,0.5,1.8,1.1,2.2l1.7,0.3L298.6,179z"/>
					<path class="st0" d="M298.8,179.3l-2.1-0.4c-0.8-0.5-1.3-1.4-1.4-2.5c-0.2-1.9,0.8-3.9,2.3-4.4l0.1,0h1.6v0.7h-1.5
						c-1.1,0.4-1.9,2-1.7,3.6c0.1,0.9,0.5,1.6,1,1.9l1.9,0.4L298.8,179.3z"/>
				</g>
			</g>
			<g>
				<g>
					<path class="st0" d="M299.1,178.9c-0.5,0.1-1,0-1.4-0.2c-0.7-0.4-1.1-1.3-1.2-2.3c-0.2-1.8,0.8-3.6,2.1-4.1
						c0.6-0.2,1.1-0.1,1.6,0.2c0.7,0.4,1.1,1.3,1.2,2.3c0.2,1.8-0.8,3.7-2.1,4.1C299.3,178.9,299.2,178.9,299.1,178.9z M298.9,172.4
						c-0.1,0-0.1,0-0.2,0.1c-1.3,0.4-2.2,2.2-2,3.9c0.1,1,0.5,1.7,1.1,2.1c0.4,0.3,0.9,0.3,1.4,0.2c1.3-0.4,2.2-2.2,2-3.9
						c-0.1-1-0.5-1.7-1.1-2.1C299.8,172.4,299.4,172.3,298.9,172.4z"/>
					<path class="st0" d="M298.7,179.2c-0.4,0-0.8-0.1-1.1-0.3c-0.7-0.5-1.2-1.4-1.3-2.5c-0.2-1.9,0.8-3.9,2.3-4.4
						c0.6-0.2,1.3-0.1,1.8,0.2c0.7,0.5,1.2,1.4,1.3,2.5c0.2,1.9-0.8,3.9-2.3,4.4c-0.1,0-0.2,0.1-0.3,0.1h0
						C299,179.2,298.9,179.2,298.7,179.2z M299.3,172.6c-0.1,0-0.2,0-0.3,0l0,0c-0.1,0-0.1,0-0.2,0.1c-1.2,0.4-2,2-1.8,3.6
						c0.1,0.9,0.5,1.6,1,1.9c0.4,0.2,0.8,0.3,1.2,0.1c1.2-0.4,2-2,1.8-3.6c-0.1-0.9-0.5-1.6-1-1.9
						C299.8,172.7,299.6,172.6,299.3,172.6z"/>
				</g>
			</g>
		</g>
		<g>
			<g>
				<path class="st0" d="M287.5,187.6c0,0.1,0,0.2,0,0.2l1.9-1.4c-0.1,0-0.1,0-0.2-0.1L287.5,187.6z"/>
				<path class="st0" d="M287.2,188.4l0-0.9l1.9-1.4l0.1,0.1c0.1,0,0.1,0,0.2,0.1l0.6,0.1L287.2,188.4z"/>
			</g>
			<g>
				<path class="st0" d="M290.5,178.7c-0.5-0.2-1.1-0.1-1.7,0.3l-1.2,0.9c0,0.1,0,0.2,0,0.2l1.3-0.9c0.3-0.2,0.6-0.4,0.9-0.4
					c0.2,0,0.4,0,0.6,0.1c0.2,0.1,0.4,0.3,0.6,0.5c0.1,0,0.2,0,0.3,0C291.1,179.1,290.8,178.8,290.5,178.7z"/>
				<path class="st0" d="M287.3,180.6l0-0.9l0.1-0.1l1.2-0.9c0.7-0.5,1.4-0.6,2-0.3c0.4,0.2,0.7,0.5,0.9,0.9l0.3,0.5l-0.7-0.1
					c-0.1,0-0.1,0-0.2,0l-0.1,0l-0.1-0.1c-0.2-0.2-0.3-0.4-0.5-0.4c-0.2-0.1-0.3-0.1-0.5-0.1c-0.3,0-0.5,0.1-0.8,0.3L287.3,180.6z"
					/>
			</g>
		</g>
	</g>
	<path class="st0" d="M272.5,218.5c-1.9,0-4-0.4-6.5-1c-6.3-1.3-6.5-11.1-6.5-11.6c0-1-0.7-101.9-0.7-122.5c0-13,4.1-21.3,7.5-26
		c2.3-3.2,6.2-4.9,10.1-4.5l0,0c2.3,0.2,4.3,0.8,6,1.6c5.3,2.6,6.9,15,7,16.4l0,0.1l0,0.1c0,1.1-0.4,109.3-0.6,117.8
		c-0.2,9.1-3.7,22.2-8.5,26.3C277.4,217.7,275.1,218.5,272.5,218.5z M275.2,55.6c-2.7,0-5.3,1.3-6.8,3.5c-3.2,4.4-6.9,12.2-7,24.5
		c-0.1,20.6,0.7,121.4,0.7,122.4c0,0.1,0.2,8.1,4.4,9c5.8,1.2,8,1.7,12-1.8c4.1-3.5,7.4-16,7.6-24.3c0.2-8.3,0.5-114.2,0.6-117.6
		c-0.5-4.7-2.5-12.7-5.5-14.2c-1.4-0.7-3.1-1.2-5.1-1.4C275.8,55.6,275.5,55.6,275.2,55.6z"/>
	<path class="st0" d="M276.9,217c-1.5,0-2.8-0.5-3.9-1.5c-4-3.6-4-12.7-4-13.1c0-4.7-0.2-114.8,0-122c0.2-7.7,1.9-12.1,4.5-17.9
		c2.8-6.5,8.4-6.7,11-5.9l-0.8,2.5l0.4-1.3l-0.4,1.3c-0.5-0.2-5.2-1.4-7.7,4.4c-2.5,5.7-4,9.7-4.3,17c-0.2,7.2,0,120.8,0,121.9
		c0,2.3,0.5,8.8,3.1,11.1c0.7,0.7,1.6,0.9,2.7,0.8l0.3,2.6C277.4,217,277.2,217,276.9,217z"/>
	<path class="st0" d="M279.9,209.3c-0.6,0-1.3-0.2-1.8-0.6c-1.9-1.4-2.7-5-3-7.8c-0.1-0.6-0.1-1.3-0.1-1.9c0-9.3,0-105.2,0-110.7
		c0-5.6,0.6-19.1,6.1-23c1.6-1.1,3-0.9,3.8-0.6c3.4,1.5,4.4,8.4,4.5,9.8l-2.6,0.3c-0.3-2.7-1.5-7-3-7.7c-0.1-0.1-0.5-0.2-1.2,0.3
		c-3.7,2.6-5,12.4-5,20.8c0,5.6,0,101.4,0,110.7c0,0.6,0,1.1,0.1,1.6c0.4,3,1.1,5.4,1.9,5.9c0.1,0.1,0.2,0.1,0.4,0.1
		c1.8-0.4,4.2-5.9,5.2-9.5l2.6,0.7c-0.5,1.7-3.2,10.5-7.2,11.3C280.3,209.3,280.1,209.3,279.9,209.3z"/>
	<g>
		<g>
			<path class="st0" d="M289.2,194.1v-2.4l0.5-0.6l0,0l0.4,1.1l0.4-2l0.5-0.6v2.4l-0.4,0.5v-1.3l-0.3,1.6l-0.3,0.3l0,0l-0.3-0.9v1.3
				L289.2,194.1z M289.3,191.6v2.2l0.2-0.3V192l0.1-0.1l0,0l0.4,1.1l0.2-0.2l0.4-2l0.1-0.1l0,0.1v1.5l0.2-0.3v-2.2l-0.3,0.4
				l-0.4,2.2l-0.1,0.1l0,0l-0.4-1.2L289.3,191.6z"/>
		</g>
		<g>
			<path class="st0" d="M291.8,191.4c-0.1,0.1-0.2,0.1-0.3,0c-0.1-0.1-0.2-0.2-0.2-0.5v-0.4c0-0.3,0.1-0.6,0.2-0.9
				c0.1-0.3,0.3-0.6,0.5-0.8c0.2-0.2,0.4-0.3,0.6-0.3c0.1,0.1,0.2,0.2,0.2,0.5v0.4c0,0.3-0.1,0.6-0.2,0.9c-0.1,0.3-0.3,0.6-0.5,0.9
				C291.9,191.3,291.8,191.3,291.8,191.4z M292.3,188.5c-0.1,0-0.2,0.1-0.2,0.2c-0.2,0.2-0.4,0.5-0.5,0.8c-0.1,0.3-0.2,0.6-0.2,0.9
				v0.4c0,0.3,0.1,0.4,0.2,0.5c0.1,0,0.3,0,0.5-0.2c0.2-0.2,0.4-0.5,0.5-0.8c0.1-0.3,0.2-0.6,0.2-0.9V189c0-0.3-0.1-0.4-0.2-0.5
				C292.4,188.5,292.4,188.5,292.3,188.5z M291.9,190.9c-0.1,0-0.1,0-0.2,0c-0.1-0.1-0.1-0.2-0.1-0.4v-0.4c0-0.2,0-0.4,0.1-0.6
				c0.1-0.2,0.2-0.4,0.3-0.5c0.2-0.2,0.3-0.2,0.3-0.1c0.1,0.1,0.1,0.2,0.1,0.4v0.4c0,0.2,0,0.4-0.1,0.6c-0.1,0.2-0.2,0.4-0.3,0.5
				C292,190.8,291.9,190.9,291.9,190.9z M292.1,189c0,0-0.1,0-0.1,0.1c-0.1,0.1-0.2,0.2-0.2,0.4c-0.1,0.2-0.1,0.4-0.1,0.5v0.4
				c0,0.2,0,0.3,0.1,0.3c0,0,0.1,0,0.2-0.1c0.1-0.1,0.2-0.3,0.2-0.4c0.1-0.2,0.1-0.4,0.1-0.5v-0.4c0-0.2,0-0.3-0.1-0.3
				C292.2,189,292.2,189,292.1,189z"/>
		</g>
		<g>
			<path class="st0" d="M292.9,190.2v-2.4l0.6-0.7c0.2-0.2,0.4-0.3,0.6-0.3c0.1,0,0.2,0.2,0.2,0.5v0.4c0,0.3-0.1,0.6-0.2,0.9
				c-0.1,0.3-0.3,0.6-0.5,0.8L292.9,190.2z M293,187.7v2.2l0.5-0.5c0.2-0.2,0.4-0.5,0.5-0.8c0.1-0.3,0.2-0.6,0.2-0.9v-0.4
				c0-0.3-0.1-0.4-0.2-0.5c-0.1,0-0.3,0-0.5,0.2L293,187.7z M293.3,189.4v-1.7l0.3-0.3c0.2-0.2,0.3-0.2,0.3-0.1
				c0.1,0,0.1,0.2,0.1,0.4v0.4c0,0.2,0,0.4-0.1,0.6c-0.1,0.2-0.2,0.4-0.3,0.5L293.3,189.4z M293.4,187.7v1.5l0.2-0.2
				c0.1-0.1,0.2-0.2,0.2-0.4c0.1-0.2,0.1-0.4,0.1-0.5v-0.4c0-0.2,0-0.3-0.1-0.3c0,0-0.1,0-0.2,0.1L293.4,187.7z"/>
		</g>
		<g>
			<path class="st0" d="M294.5,188.5v-2.4l0,0l1.2-1.2v0.5l0,0l-0.7,0.8v0.5l0.6-0.7v0.5L295,187v0.6l0.7-0.8v0.5l0,0L294.5,188.5z
				 M294.6,186.1v2.2l1-1V187l-0.7,0.8V187l0.6-0.7v-0.2l-0.6,0.7v-0.7l0,0l0.7-0.8V185L294.6,186.1z"/>
		</g>
	</g>
	<g>
		<path class="st0" d="M300.8,184.4c-0.3,0.2-0.5,0.2-0.8,0.2c-0.3-0.1-0.5-0.4-0.5-0.9c0-0.2,0.1-0.4,0.3-0.6
			c0.1-0.1,0.2-0.1,0.2-0.1c0.1,0,0.1,0.1,0.1,0.2c0,0.3,0.1,0.5,0.3,0.5c0.2,0,0.4-0.1,0.7-0.3c0.6-0.5,1-1.3,1-2
			c0-0.4-0.2-0.6-0.6-0.5l0.2,0.5c0.1,0.1,0,0.4-0.2,0.6c0,0-0.1,0.1-0.1,0.1c-0.1,0.1-0.3,0.1-0.3,0l-0.5-0.9
			c-0.1-0.1,0-0.4,0.2-0.6l1.1-1.4c0.1-0.1,0.2-0.2,0.3-0.2c0.1,0,0.1,0,0.2,0.1c0.1,0.1,0,0.4-0.2,0.6l-0.3,0.4
			c0.5-0.1,0.8,0.3,0.8,0.9c0,1-0.7,2.4-1.6,3.1C301.1,184.2,301,184.3,300.8,184.4z M299.9,183.2
			C299.9,183.2,299.9,183.2,299.9,183.2c-0.2,0.1-0.3,0.3-0.3,0.4c0,0.5,0.2,0.8,0.5,0.8c0.3,0.1,0.6-0.1,1-0.4
			c0.8-0.7,1.5-2,1.5-2.9c0-0.6-0.3-0.9-0.8-0.8l-0.1,0l0.5-0.6c0.1-0.1,0.2-0.3,0.1-0.4c0,0,0,0-0.1,0c0,0-0.1,0.1-0.2,0.1
			l-1.1,1.4c-0.1,0.1-0.2,0.3-0.1,0.4l0.5,0.9c0,0.1,0.1,0,0.2,0c0,0,0.1,0,0.1-0.1c0.1-0.1,0.2-0.3,0.1-0.4l-0.3-0.6l0.1,0
			c0.5-0.2,0.8,0,0.8,0.5c0,0.7-0.5,1.6-1.1,2.1c-0.3,0.2-0.6,0.3-0.8,0.3c-0.2,0-0.4-0.3-0.4-0.6
			C300.1,183.2,300.1,183.1,299.9,183.2C300,183.1,300,183.1,299.9,183.2z"/>
	</g>
</g>
</svg>
