<?xml version="1.0" encoding="utf-8"?>
<!-- Generator: Adobe Illustrator 23.0.2, SVG Export Plug-In . SVG Version: 6.00 Build 0)  -->
<svg version="1.1" id="Layer_1" xmlns="http://www.w3.org/2000/svg" xmlns:xlink="http://www.w3.org/1999/xlink" x="0px" y="0px"
	 viewBox="0 0 366 255.1" style="enable-background:new 0 0 366 255.1;" xml:space="preserve">
<style type="text/css">
	.st0{fill:none;stroke:#22F4BB;stroke-width:2;stroke-miterlimit:10;}
	.st1{fill:none;stroke:#22F4BB;stroke-width:3;stroke-miterlimit:10;}
</style>
<path class="st0" d="M57.5,29.4l3.7,185c0,0,1.3,1.7,5.1,1.4c3.8-0.3,6.2-1.1,6.8-2.8c0.4-1.3,0.4-3,0.4-3L68.2,38.8l-6.7-9.4
	l-4-0.9V29.4z"/>
<path class="st0" d="M73.7,22l3.6,161.3l12.4-1.9c0,0-4.5-106.7-4.9-116c-0.4-8.3-1.9-37.8-2.2-43.6c0-0.6-0.5-1-1.1-1h-6.7
	C74.2,20.9,73.7,21.4,73.7,22z"/>
<line class="st0" x1="74" y1="21.3" x2="83.1" y2="32.6"/>
<path class="st0" d="M197.6,164.8V17c0-1.1,0.9-2,2-2l4.8-0.5c0.9,0,1.6,0.7,1.7,1.6c0.4,15.4,3.2,135.5,2.7,146.8L197.6,164.8z"/>
<line class="st0" x1="198.4" y1="15.4" x2="206.2" y2="24.9"/>
<path class="st0" d="M248.9,164.4L252,26.9l3.2-8.7c0.3-0.7,1-1.1,1.8-1l3.1,0.6c0.3,0.1,0.6,0.4,0.6,0.7c0,9.9,0.3,139.7-0.9,151.1
	L248.9,164.4z"/>
<line class="st0" x1="252" y1="26.9" x2="260.7" y2="18"/>
<path class="st1" d="M72.7,184.1l160.8-24.9c1.7-0.3,3.4,0,5,0.7c8.1,3.6,34.9,15.8,51.8,26.6c20,12.9,18.1,11.1,18.1,15.8
	s-2.5,5.9-11.4,8.2c-8.9,2.2-141,29.4-141,29.4s-14.8,3.2-30.4-4.9c-15.6-8.2-45.3-24.7-45.3-24.7S72.3,206.7,72.7,184.1z"/>
<path class="st0" d="M73.7,189.2c0,0,36.2,21.7,46.7,33.8c10.5,12.1,21.8,15.6,38.6,12.1c16.8-3.5,149.1-30.5,149.1-30.5"/>
<circle class="st0" cx="70.4" cy="208.9" r="1.4"/>
<g>
	<polygon class="st0" points="73.5,202.8 75.8,202.5 76,210.8 73.5,211 	"/>
	<line class="st0" x1="75.9" y1="207.1" x2="73.5" y2="207.4"/>
	<line class="st0" x1="73.8" y1="201.5" x2="75.8" y2="202.5"/>
	<path class="st0" d="M75.8,212.2c0.8-1.9,1.2-1.7,0.9-6.6c-0.3-4.9-2-6.3-2-6.3l0.7-0.2c0,0,0.6,0.2,1.4,1.3c0.3,0.6,0.7,1.3,1,2.4
		c1,3.4,0.7,7.4,0,8.4C77.3,212.2,75.8,212.2,75.8,212.2z"/>
	<path class="st0" d="M77,200.5c0,0,2,1,2.4,4c0.4,3,0,4.9-1.1,5.9"/>
	<path class="st0" d="M77.4,200.5c0,0,1.5-0.6,2.1,0.2c0.6,0.8,1.3,1.9,1.5,4h0.6c0,0-0.4-3.2-1.5-4.5s-1.5-1.2-2-1
		C77.8,199.5,77.5,199.8,77.4,200.5z"/>
	<path class="st0" d="M78.3,210.6l1,0.5l2.5-0.4l5.9-0.8c0.9-0.8,0.7-3.7-0.6-6.8c-1.2-3.2-3.5-4.4-3.5-4.4l-4.7,0.6"/>
	<line class="st0" x1="79.2" y1="209.8" x2="79.2" y2="211.1"/>
	<line class="st0" x1="81.5" y1="209.5" x2="81.5" y2="210.7"/>
	<path class="st0" d="M78.8,209.8c0,0,3.6,0.2,4.4-0.9c0.8-1.1,0.5-4,0.5-4"/>
	<line class="st0" x1="81.7" y1="204.8" x2="84.1" y2="204.8"/>
	<path class="st0" d="M82.9,210.4c0,0,1.7-0.3,1.4-5.5"/>
</g>
</svg>
