<?xml version="1.0" encoding="utf-8"?>
<!-- Generator: Adobe Illustrator 23.0.2, SVG Export Plug-In . SVG Version: 6.00 Build 0)  -->
<svg version="1.1" id="Layer_1" xmlns="http://www.w3.org/2000/svg" xmlns:xlink="http://www.w3.org/1999/xlink" x="0px" y="0px"
	 viewBox="0 0 366 255.1" style="enable-background:new 0 0 366 255.1;" xml:space="preserve">
<style type="text/css">
	.st0{fill:#22F4BB;}
	.st1{fill:none;stroke:#22F4BB;stroke-miterlimit:10;}
	.st2{fill:none;stroke:#22F4BB;stroke-width:0.25;stroke-miterlimit:10;}
	.st3{fill:none;stroke:#22F4BB;stroke-width:0.25;stroke-linecap:round;stroke-linejoin:round;stroke-miterlimit:10;}
</style>
<g>
	<g>
		<path class="st0" d="M143.7,222.9c-9.4,0.2-18.6-2.2-26.5-7l-72.5-45.1c-3.6-2.2-9-5.5-9.1-14.2l-0.9-47.1
			c-0.1-7.7,5.5-15,13.5-17.3L199.4,37c20.8-7.2,29.7-7.1,57.2,6.9L323.4,79c2.7,1.7,6.8,4.4,6.9,11.6l0.9,48.2
			c0.1,7.5-2.5,9.2-5.4,10.3c-0.2,0.1-0.4,0.2-0.6,0.3l-160.3,68.7C158,221.2,150.8,222.7,143.7,222.9 M220.6,34.9
			c-6.2,0.1-12.3,1.8-20.4,4.6L49,94.7c-6.9,2.1-11.8,8.2-11.7,14.7l0.9,47.1c0.1,7.2,4.4,9.8,7.8,11.9l72.6,45.1
			c13.1,8,30,8.8,45.2,2.1l160.3-68.8c0.2-0.1,0.5-0.2,0.7-0.3c2-0.8,3.9-1.5,3.7-7.8l-0.9-48.2c-0.1-5.8-3.1-7.7-5.7-9.4h-0.1
			l-66.5-35C239.2,38,229.8,34.7,220.6,34.9"/>
		<g>
			<path class="st0" d="M178.6,148.6l-21.8,9.3c-5.3,2.3-19.1,6.9-32.1-0.8l-84.3-50.4c-1.8-1.3-2.8-2.4-2.7-4.2h-0.3
				c-0.2,2,1,3.2,2.8,4.6l84.3,50.4c5.7,3.4,11.6,4.4,16.8,4.3c6.8-0.1,12.5-2.2,15.6-3.5l22-9.3
				C178.9,148.8,178.7,148.7,178.6,148.6z"/>
		</g>
		<polygon class="st0" points="86.2,178.4 85.2,178.2 84.6,148.7 85.6,148.7 		"/>
		<path class="st0" d="M55.7,161.5c-0.2,0-0.5-0.1-0.8-0.2l-10-5.9c-0.9-0.5-1.5-2-1.4-3.3v-1.7c0.1-1.2,0.5-2,1.3-2.4
			s2-0.2,3.4,0.6l4.3,2.6c1.7,1,4.9,3.8,4.6,6.9v1.7c-0.1,0.8-0.4,1.4-0.9,1.6C56,161.5,55.8,161.5,55.7,161.5 M45.8,148.5
			c-0.2,0-0.4,0.1-0.6,0.1c-0.5,0.3-0.8,0.9-0.9,1.8v1.7c-0.1,1,0.4,2.2,1.1,2.6l10,5.9c0.2,0.1,0.4,0.2,0.6,0.1
			c0.3-0.1,0.5-0.5,0.5-1V158c0.2-2.6-2.4-5.2-4.2-6.3l-4.3-2.6C47.1,148.8,46.3,148.5,45.8,148.5"/>
		<path class="st0" d="M56.7,159l-10-5.8c-0.7-0.4-1.2-1.2-1.2-2.1l-0.1-2.9h0.3l0.1,2.9c0,0.7,0.4,1.4,1,1.8l10,5.8L56.7,159z"/>
		<path class="st0" d="M57.1,157.9l-9.2-5.4c-0.8-0.5-1.3-1.3-1.3-2.2v-2.4l0.5,0.2c0.4,0.2,10,4,10,9.1V157.9z M47.3,149v1.3
			c0,0.7,0.4,1.3,0.9,1.6l8,4.7C55.5,152.8,49.2,149.8,47.3,149z"/>
		<path class="st0" d="M46.6,152.7c-0.2,0-0.5-0.1-0.6-0.4c-0.2-0.3,0-0.7,0.3-0.9l1.9-1c0.3-0.2,0.7-0.1,0.9,0.3
			c0.2,0.3,0.1,0.7-0.3,0.9l-1.9,1C46.8,152.7,46.7,152.7,46.6,152.7"/>
		<path class="st0" d="M83.8,160.8L83.8,160.8l-1.3-0.8l-0.1-4.5v-0.1l-4.3-2.5l-0.1-4.1v-0.1l-2.2-1.2v-2v-0.1l-6.8-3.9v0.1v2
			l-2.2-1.2v0.1l0.1,4.1l-4.3-2.5v0.1l0.1,4.3l-1.3-0.8v0.1l0.1,7l1.3,0.8v0.1l0.1,3.5v1.6l19.7,11.4v-2l-0.1-2.9v-0.1l1.3,0.8
			V160.8z M83.1,162.4l-4.4,2.1h-0.1l0.1,3l-0.9-0.5l-0.1-2.9l5.4-2.6V162.4z M77.6,153.4l0.1,0.1l0.7,0.4l-10.6,5.2h-0.1v2.3
			l-0.9-0.5v-2.2L77.6,153.4z M70.1,160.3v2.5l-0.9-0.5v-2.4l10.6-5.2l0.8,0.4L70.1,160.3L70.1,160.3z M69,159.7L69,159.7l-0.1,2.4
			l-0.9-0.5v-2.3l10.7-5.2l0.8,0.4L69,159.7z M77.5,163.9L77.5,163.9v3l-0.9-0.5l-0.1-2.8l5.9-2.9l0.7,0.4v0.1L77.5,163.9z
			 M82,160.5l-5.8,2.8h-0.1l0.1,2.9l-0.9-0.5l-0.1-2.8l6.5-3.1v0.2v0.4L82,160.5z M81.8,159.4l-6.7,3.3H75l0.1,2.8l-0.9-0.5
			l-0.1-2.7l7.6-3.7L81.8,159.4z M81.7,158.3l-7.9,3.8h-0.1l0.1,2.7l-0.9-0.5l-0.1-2.6l8.8-4.3L81.7,158.3z M81.7,157.1l-9.1,4.4
			h-0.1v2.6l-0.9-0.5v-2.5l10-4.9L81.7,157.1z M71.4,160.9L71.4,160.9v2.6l-0.9-0.5v-2.5l10.6-5.2l0.7,0.4v0.1L71.4,160.9z
			 M63.2,154.9l-1-0.6l-0.1-5.5l0.3,0.2l1,0.6v-1.2l-0.1-3.2l3.2,1.9l1,0.6v-1.2l-0.1-3l1.1,0.7l1,0.6v-1.2v-0.9l5.5,3.2v1.7v0.4
			l0.3,0.2l1.8,1.1l0.1,3.8v0.2l-10.9,5.3h-0.1v1l-2.8,0.9l0,0l-0.1-4.8v-0.4L63.2,154.9z M82,170.9l-17.9-10.3l2.4-0.7v1.3l0.1,0.1
			l0,0l12.2,6.9h0.1l0.2-0.1l0,0l0,0l2.9-1.2v0.3V170.9z M82.9,166.5l-1-0.6v0.5l-2.9,1.2l-0.1-2.8l4.2-2l0.1,3.9L82.9,166.5z"/>
		<path class="st0" d="M109.1,175.7L109.1,175.7l-1.3-0.8l-0.1-4.5v-0.1l-4.3-2.5l-0.1-4.1v-0.1l-2.2-1.2v-2v-0.1l-6.8-3.9v0.1v2
			l-2.2-1.2v0.1l0.1,4.1l-4.3-2.5v0.1l0.1,4.3l-1.3-0.8v0.1l0.1,7l1.3,0.8v0.1l0.1,3.5v1.6l19.7,11.4v-2l-0.1-2.9v-0.1l1.3,0.8
			L109.1,175.7z M108.5,177.3l-4.4,2.1H104l0.1,3l-0.9-0.5l-0.1-2.9l5.4-2.6V177.3z M103,168.4l0.1,0.1l0.7,0.4L93.1,174H93v2.3
			l-0.9-0.5v-2.2L103,168.4z M95.5,175.3v2.5l-0.9-0.5v-2.4l10.6-5.2l0.8,0.4L95.5,175.3L95.5,175.3z M94.3,174.6L94.3,174.6
			l-0.1,2.4l-0.9-0.5v-2.3L104,169l0.8,0.4L94.3,174.6z M102.9,178.9L102.9,178.9v3l-0.9-0.5l-0.1-2.8l5.9-2.9l0.7,0.4v0.1
			L102.9,178.9z M107.4,175.5l-5.8,2.8h-0.1l0.1,2.9l-0.9-0.5l-0.1-2.8l6.5-3.1v0.2v0.4L107.4,175.5z M107.1,174.4l-6.7,3.3h-0.1
			l0.1,2.8l-0.9-0.5l-0.1-2.7l7.6-3.7L107.1,174.4z M107.1,173.2l-7.9,3.8h-0.1l0.1,2.7l-0.9-0.5v-2.6l8.8-4.3V173.2z M107.1,172
			l-9.1,4.4h-0.1L98,179l-0.9-0.5V176l10-4.9V172z M96.8,175.8L96.8,175.8v2.6l-0.9-0.5v-2.5l10.6-5.2l0.7,0.4v0.1L96.8,175.8z
			 M88.5,169.8l-1-0.6l-0.1-5.5l0.3,0.2l1,0.6v-1.2l-0.1-3.2l3.3,1.9l1,0.6v-1.2l-0.1-3l1.1,0.7l1,0.6v-1.2v-0.9l5.5,3.2v1.7v0.4
			l0.3,0.2l1.8,1.1l0.1,3.8v0.2l-10.7,5.2h-0.1v1l-2.8,0.9l0,0l-0.1-4.8v-0.4L88.5,169.8z M107.3,185.8l-17.9-10.3l2.4-0.7v1.3
			l0.1,0.1l0,0l12.2,6.9h0.1l0.2-0.1l0,0l0,0l2.9-1.2v0.3L107.3,185.8z M108.3,181.4l-1-0.6v0.5l-2.9,1.2l-0.1-2.8l4.2-2l0.1,3.9
			L108.3,181.4z"/>
		<path class="st0" d="M110.9,193.3l-50.5-29.4l-0.6-30.4l50.5,29.4L110.9,193.3z M61.4,163.4l48.5,28.2l-0.5-28l-48.5-28.3
			L61.4,163.4z"/>
		<g>
			<path class="st0" d="M317,90.5c6.1-3,8.6-5,8.6-6.9c0.2-1.2-0.8-2.4-3-3.7l-0.2,0.3c2.1,1.3,3.1,2.3,3,3.4
				c-0.1,1.7-2.6,3.7-8.5,6.6"/>
			<path class="st0" d="M179.2,149.4l-22.1,9.4c-5.5,2.3-10.7,3.5-15.8,3.5c-0.2,0-0.5,0-0.7,0c-6,0-11.5-1.5-16.4-4.4l-84.3-50.4
				c-1.8-1.4-3.3-2.7-3-5.1v-0.5h1.3v0.5c-0.1,1.6,0.8,2.5,2.5,3.8l84.3,50.4c12.8,7.6,26.4,3.1,31.6,0.8l21.9-9.3l40.4-17.1
				l97.8-41.3c5.5-2.7,8.1-4.7,8.2-6.2c0.1-0.8-0.8-1.7-2.8-2.9l-0.4-0.3l0.8-1.1l0.4,0.2c2.4,1.4,3.5,2.8,3.2,4.2
				c0,2.1-2.5,4.1-8.9,7.3l-97.7,41.3L179.2,149.4z"/>
		</g>
		<path class="st1" d="M191.8,203.6l-0.7-29.2c-0.1-1.2,0.6-2.3,1.7-2.8l50.3-22.2c1.9-0.8,4,0.5,4.1,2.5l1.5,28.4"/>
		<path class="st0" d="M311.7,126.4c-0.3-1.8-1.2-3-2.5-3.5c-1.6-0.6-3.5,0-5.1,1.5c0,0,0,0,0,0c1.4,0.6,4.1,1.7,4,3.6
			c0,0.8-1.1,2.1-1.2,2.1c0,0,2,2.2,4.5,0.6c-0.6,1.5-1.9,3.7-3.5,3.2c-1.8-0.6-2-2.1-2.2-2.3c-0.1,0.1-2.5,0.7-3.3,4.3
			c-0.5-1.5-1-3.8,0.1-5.1c0.8-1,1.8-0.9,2.5-1c0,0,1-2.9-0.9-5.4c-0.1,0-0.1,0-0.1,0.1c0,0,0,0.1,0,0.1c-0.9,0.9-1.7,2.1-2.3,3.6
			c-0.7,1.9-1,3.8-0.7,5.5c0.3,1.8,1.2,3,2.5,3.5c0.4,0.2,0.9,0.3,1.3,0.3c1,0,2-0.4,2.9-1.1c1.4-1,2.6-2.6,3.3-4.4c0,0,0-0.1,0-0.1
			c0.2-0.3,0.3-0.6,0.4-0.9c0-0.1,0-0.1-0.1-0.2C311.9,129.2,312,127.7,311.7,126.4z M309.2,134.4c-3.1,3.5-5.5,2.4-6.7,1.5
			c0.1-0.2,0.1-0.4,0.2-0.7c0.8-0.1,2.2-0.6,3.5-2.1c0.3,0.4,0.8,0.8,1.5,1c0.8,0.2,1.5-0.1,2.1-0.7
			C309.7,133.7,309.5,134.1,309.2,134.4z M311.2,130.7c-1.3,0.8-2.4,0.5-3.2,0.1c2.1-4.1,0.2-7.7,0.2-7.7c1.6,0,2.4,1.5,2.7,1.9
			C311.1,125.2,311.9,127.8,311.2,130.7z"/>
		<g>
			<path class="st0" d="M76,111.1c-2.2,0-4.8-0.6-8.2-2.2l-10.3-5.6c-2.2-1-3.4-2.3-3.3-3.6c0-1.3,1.2-2.4,3.1-3.1l155.5-57.7
				c4-1.5,10.5-1.1,14.6,0.7l11.8,5.3c2.2,1,3.4,2.3,3.4,3.7c0,1.3-1.2,2.4-3.1,3.1L82.3,109.6C80.4,110.4,78.4,111.1,76,111.1z
				 M218.9,38.9c-2.1,0-4.1,0.3-5.7,0.9L57.7,97.5c-1.5,0.6-2.4,1.4-2.5,2.2c0,0.9,1,1.9,2.8,2.7l10.3,5.6c6.8,3.2,10,2.1,13.7,0.7
				h0.1l157-58c1.5-0.6,2.4-1.4,2.5-2.2c0-0.9-1-1.9-2.8-2.7L227,40.4C224.8,39.4,221.8,38.9,218.9,38.9z"/>
			<path class="st0" d="M65.2,99.2c-0.4,0.2-1.1,0.2-1.5-0.1c-0.4-0.2-0.4-0.5,0-0.7c0.4-0.2,1.1-0.2,1.5,0.1
				C65.6,98.7,65.6,99,65.2,99.2"/>
			<path class="st0" d="M69.6,101.5c-0.4,0.2-1.1,0.2-1.5-0.1c-0.4-0.2-0.4-0.5,0-0.7s1.1-0.2,1.5,0.1C70,101,70,101.3,69.6,101.5"
				/>
			<path class="st0" d="M74,103.7c-0.4,0.2-1.1,0.2-1.5-0.1c-0.4-0.2-0.4-0.5,0-0.7s1.1-0.2,1.5,0.1C74.4,103.2,74.4,103.6,74,103.7
				"/>
			<path class="st0" d="M78.4,106c-0.4,0.2-1.1,0.2-1.5-0.1c-0.4-0.2-0.4-0.5,0-0.7s1.1-0.2,1.5,0.1C78.8,105.5,78.8,105.8,78.4,106
				"/>
			<polygon class="st0" points="184.3,60.1 183.4,60.5 178.2,58.2 179.2,57.8 			"/>
			<polygon class="st0" points="182.6,60.7 181.7,61.1 177.5,59.2 178.5,58.9 			"/>
			<polygon class="st0" points="180.9,61.4 180,61.7 176.8,60.3 177.7,59.9 			"/>
			<polygon class="st0" points="179.2,62 178.3,62.3 176,61.3 177,61 			"/>
			<path class="st0" d="M157,69.9l2.2,0.1v-0.9c-0.6,0-1.1,0-1.5,0.2C157.2,69.5,157,69.7,157,69.9"/>
			<path class="st0" d="M157,69.9l2.2,0.1L157,69.9z"/>
			<path class="st0" d="M154.4,69.8l1.3,0.1c0-0.4,0.4-0.7,1-1c0.7-0.2,1.5-0.4,2.5-0.3v-0.5c-1.3-0.1-2.5,0.1-3.4,0.4
				C154.8,68.8,154.3,69.3,154.4,69.8"/>
			<path class="st0" d="M151.9,69.7l1.3,0.1c0-0.6,0.6-1.2,1.8-1.7c1.2-0.4,2.7-0.6,4.2-0.5v-0.5c-1.9-0.1-3.8,0.1-5.2,0.6
				C152.5,68.1,151.8,68.9,151.9,69.7"/>
			<polygon class="st0" points="135.8,77.7 133.7,77.4 132.6,77.8 132.2,77.7 133,77.4 130.6,76.3 128.5,77.1 130.8,78.2 
				131.6,77.9 132,78.1 130.9,78.5 131.4,79.4 130.7,79.6 133,80.7 135.2,79.9 132.8,78.8 132.2,79 132,78.7 134.2,77.9 135,78 
				134.4,78.2 136.8,79.3 138.9,78.5 136.6,77.5 			"/>
			<polygon class="st0" points="83.5,96 82.6,96.3 78.5,94.4 79.4,94.1 			"/>
			<path class="st0" d="M82.5,93.8c-0.2,0-0.4,0-0.6,0l0.2,0.5c1.1,0,2.3,0.2,3.2,0.6c1.5,0.7,1.6,1.7,0.1,2.2s-3.9,0.4-5.4-0.3
				c-0.9-0.4-1.3-0.9-1.2-1.3l-1.3-0.1c0,0.1,0,0.1,0,0.2c0,0.6,0.6,1.1,1.6,1.6c1,0.4,2.3,0.7,3.7,0.8c1.4,0.1,2.6-0.1,3.6-0.4
				c2-0.7,1.9-2.1-0.1-3C85.2,94.2,83.9,93.9,82.5,93.8"/>
			<path class="st0" d="M104.9,84.5c-1.9,0.7-1.8,2,0.1,2.9c2,0.9,5.1,1,7,0.3s1.8-2-0.1-2.9C109.9,84,106.8,83.8,104.9,84.5
				 M109.4,84.6l-1,0.4c-0.6-0.2-1.1-0.3-1.8-0.4C107.5,84.5,108.5,84.5,109.4,84.6 M105.6,84.9c0.7,0.1,1.4,0.2,2.1,0.4l-1.3,0.5
				C106,85.5,105.8,85.2,105.6,84.9 M106.5,87.4c-0.3-0.1-0.6-0.2-0.8-0.3c-0.3-0.1-0.5-0.2-0.6-0.4l1.2-0.4
				c0.2,0.1,0.4,0.2,0.7,0.3c0.3,0.1,0.5,0.2,0.8,0.3L106.5,87.4z M107.5,87.7l1-0.4c0.6,0.2,1.1,0.3,1.8,0.4
				C109.4,87.8,108.4,87.8,107.5,87.7 M105.7,86l-1,0.4c-0.3-0.4-0.2-0.8,0.2-1.1C105.1,85.5,105.3,85.8,105.7,86 M111.3,87.4
				c-0.7-0.1-1.4-0.2-2.1-0.4l1.3-0.5C110.9,86.8,111.2,87.1,111.3,87.4 M110,86.2l-1.6,0.6c-0.3-0.1-0.5-0.2-0.8-0.3
				c-0.3-0.1-0.4-0.2-0.6-0.3l1.6-0.6c0.3,0.1,0.5,0.2,0.8,0.3C109.6,85.9,109.8,86,110,86.2 M112.1,87c-0.2-0.3-0.4-0.5-0.8-0.8
				l1-0.4C112.6,86.3,112.5,86.7,112.1,87 M110.7,85.9c-0.2-0.1-0.4-0.2-0.7-0.3c-0.2-0.1-0.5-0.2-0.8-0.3l1.2-0.4
				c0.3,0.1,0.6,0.2,0.8,0.3c0.3,0.1,0.5,0.2,0.6,0.4L110.7,85.9z"/>
			<polygon class="st0" points="159.5,72.5 159.9,72.4 161.7,73 160.7,72.1 161.1,71.9 163.1,72.4 161.8,71.7 162.2,71.5 
				164.1,72.7 163.7,72.8 161.3,72.2 162.4,73.2 162.1,73.4 			"/>
			<polygon class="st0" points="162.9,71.3 165.1,72.3 164.7,72.4 162.5,71.4 			"/>
			<polygon class="st0" points="164.8,70.6 165.1,70.7 164.1,71.1 164.7,71.4 165.6,71 166,71.2 165,71.5 166,71.9 165.6,72.1 
				163.4,71.1 			"/>
			<polygon class="st0" points="165.5,70.3 167.7,71.3 167.3,71.4 165.1,70.4 			"/>
			<polygon class="st0" points="110.4,90.2 110.8,90.1 112.6,90.7 111.6,89.8 112,89.6 114,90.1 112.7,89.3 113.1,89.2 115,90.4 
				114.6,90.5 112.2,89.9 113.4,90.9 113,91.1 			"/>
			<polygon class="st0" points="115.9,90 115.5,90.2 114.1,88.8 114.6,88.7 117.7,89.3 117.3,89.5 116.4,89.3 115.7,89.6 
				115.5,89.4 115.9,89.2 114.8,89 			"/>
			<polygon class="st0" points="118,89.2 115.8,88.2 116.2,88.1 118.9,88.4 117.3,87.7 117.7,87.5 119.9,88.5 119.5,88.7 
				116.7,88.4 118.4,89.1 			"/>
			<path class="st0" d="M87.6,100.8l-2.2-1l1-0.4c0.4-0.2,0.9-0.1,1.3,0c0.5,0.2,0.4,0.4-0.1,0.7l-0.4-0.1c0.3-0.2,0.3-0.3,0.1-0.4
				c-0.2-0.1-0.4-0.1-0.5,0l-0.5,0.2l1.9,0.8L87.6,100.8z"/>
			<path class="st0" d="M92.7,98.9l-2.2-1l1-0.4c0.4-0.2,0.9-0.2,1.3,0c0.3,0.1,0.3,0.3,0.2,0.5l1.6,0.2L94,98.4l-1.6-0.2l-0.2-0.1
				c0.3-0.2,0.3-0.3,0.1-0.4c-0.2-0.1-0.3-0.1-0.5,0l-0.5,0.2l1.9,0.8L92.7,98.9z"/>
			<polygon class="st0" points="87.5,99 87.9,98.8 89.7,99.5 88.7,98.5 89,98.4 91.1,98.9 89.8,98.1 90.2,98 92,99.1 91.7,99.3 
				89.3,98.7 90.4,99.7 90.1,99.9 			"/>
			<polygon class="st0" points="136,81.7 137.9,82.6 138.8,82.3 139.1,82.4 137.9,82.9 135.6,81.9 			"/>
			<polygon class="st0" points="139.7,82.2 139.3,82.3 138,81 138.4,80.8 141.6,81.5 141.2,81.7 140.3,81.5 139.6,81.7 139.4,81.5 
				139.8,81.4 138.6,81.1 			"/>
			<polygon class="st0" points="141.9,81.4 139.6,80.4 140,80.3 142.8,80.6 141.2,79.8 141.5,79.7 143.8,80.7 143.4,80.9 
				140.6,80.5 142.2,81.3 			"/>
			<path class="st0" d="M179.9,64.5c0.1-0.1,0.3-0.2,0.5-0.3c0.5-0.2,1-0.2,1.4,0c0.2,0.1,0.3,0.2,0.2,0.3c0.3,0,0.5,0,0.8,0.1
				c0.4,0.2,0.4,0.4-0.2,0.6c-0.2,0.1-0.5,0.1-0.7,0.2l-0.4-0.2c0.3,0,0.5-0.1,0.7-0.2c0.3-0.1,0.3-0.2,0.1-0.3
				c-0.2-0.1-0.4-0.1-0.6,0l-0.5,0.2l-0.4-0.2l0.5-0.2c0.2-0.1,0.2-0.2,0-0.2c-0.2-0.1-0.4-0.1-0.7,0c-0.2,0.1-0.4,0.2-0.5,0.3
				L179.9,64.5z"/>
			<path class="st0" d="M185.4,64.1c-0.1,0.1-0.3,0.2-0.5,0.3c-0.8,0.3-1.5,0.2-2.3-0.1c-0.7-0.3-0.7-0.6,0.1-0.9
				c0.2-0.1,0.5-0.1,0.7-0.2l0.4,0.2c-0.3,0-0.5,0.1-0.7,0.2c-0.5,0.2-0.5,0.4,0,0.6c0.5,0.2,1,0.3,1.5,0.1c0.1,0,0.1-0.1,0.2-0.1
				l-0.7-0.3l0.4-0.1L185.4,64.1z"/>
			<polygon class="st0" points="186.2,63.9 185.7,64.1 184.6,62.7 185,62.5 			"/>
			<polygon class="st0" points="188.9,62.9 188.5,63.1 188,62.9 186.9,63.3 186.6,63.1 186,62.2 186.4,62 187,63 187.6,62.7 
				186.9,62.4 187.3,62.2 188,62.6 188.5,62.6 188.6,62.6 188.4,62.7 			"/>
			<path class="st0" d="M191,62.1c-0.1,0.1-0.3,0.2-0.5,0.3c-0.8,0.3-1.5,0.2-2.3-0.1c-0.7-0.3-0.7-0.6,0.1-0.9
				c0.2-0.1,0.5-0.1,0.7-0.2l0.4,0.2c-0.3,0-0.5,0.1-0.7,0.2c-0.5,0.2-0.5,0.4,0,0.6c0.5,0.2,1,0.3,1.5,0.1c0.1,0,0.1-0.1,0.2-0.1
				l-0.6-0.3l0.4-0.1L191,62.1z"/>
			<path class="st0" d="M201.5,54.7l-1.7,0.6l0,0l0.5,0.3h0.1l0.9-0.3l0.8,0.6c-0.1,0.1-0.3,0.2-0.6,0.3c-1,0.3-2.1,0.2-2.8-0.4
				c-0.7-0.5-0.5-1.1,0.5-1.4c0.5-0.2,0.8-0.2,1.1-0.2h0.1l0,0l0,0l-0.3-0.4c0,0,0,0-0.1,0h-0.1c-0.3,0-0.8,0.1-1.3,0.3
				c-1.5,0.5-1.8,1.4-0.9,2.1c0.5,0.4,1.2,0.7,1.9,0.7c0.8,0.1,1.5,0,2.3-0.2c0.6-0.2,1.1-0.4,1.3-0.6l0,0l0,0L201.5,54.7
				C201.6,54.7,201.5,54.7,201.5,54.7"/>
			<path class="st0" d="M207.6,54.2l-2.1,0.7l-3-2.1h-0.1l-0.8,0.3l0,0l3.5,2.5h0.1l3-1l0,0L207.6,54.2
				C207.7,54.2,207.7,54.2,207.6,54.2"/>
			<path class="st0" d="M209,50.1c-0.3,0.1-0.3,0.3-0.1,0.4c0.2,0.1,0.6,0.2,0.9,0.1c0.2-0.1,0.3-0.1,0.3-0.2c0-0.1,0-0.2-0.2-0.2
				C209.7,50.1,209.3,50,209,50.1"/>
			<path class="st0" d="M210.8,50.9l-0.9,0.3l0,0l3,1.9h0.1l0.9-0.3l0,0L210.8,50.9C210.9,50.9,210.9,50.9,210.8,50.9"/>
			<path class="st0" d="M215.5,48.3l-0.9,0.3l0,0l1.8,1c0.4,0.2,0.7,0.4,1.2,0.7c-0.5-0.1-1-0.2-1.5-0.3l-3.8-0.6c0,0,0,0-0.1,0
				l-0.9,0.3l0,0l4.2,2.5h0.1l0.9-0.3l0,0l-1.9-1.1c-0.5-0.3-0.8-0.5-1.2-0.7c0.5,0.1,1,0.2,1.6,0.3l4,0.7c0,0,0,0,0.1,0l0.9-0.3
				l0,0L215.5,48.3L215.5,48.3"/>
			<path class="st0" d="M219.9,47.8c-1.2,0.4-1.3,1.1-0.3,1.7c1.1,0.6,2.7,0.7,4.1,0.2c0.7-0.2,1.1-0.5,1.3-0.6h0.1l0,0l-0.8-0.3
				c0,0,0,0-0.1,0c0,0,0,0-0.1,0l-0.1,0.1c-0.2,0.1-0.4,0.3-1,0.5c-0.4,0.1-1.3,0.3-2.1-0.1l2.9-0.9l0,0l-0.1-0.1
				c-0.1,0-0.1-0.1-0.2-0.2C222.7,47.6,221.3,47.3,219.9,47.8 M220.3,48.8c-0.1-0.1-0.4-0.5,0.3-0.7c0.3-0.1,0.5-0.1,0.8-0.1
				s0.6,0.1,0.8,0.2L220.3,48.8z"/>
			<path class="st0" d="M225.5,46l-1.1,0.4l-0.9-0.5c0,0,0,0-0.1,0c0,0,0,0-0.1,0l-0.8,0.4l0,0l0.7,0.4l-0.6,0.2l0,0l0.6,0.3h0.1
				l0.6-0.2l1.7,0.9c0.5,0.2,0.9,0.4,1.4,0.4c0.4,0,0.9,0,1.4-0.2c0.3-0.1,0.6-0.2,0.7-0.3h0.1l0,0l-0.7-0.3c0,0,0,0-0.1,0
				c0,0,0,0-0.1,0l-0.1,0.1c-0.1,0-0.2,0.1-0.4,0.2c-0.2,0.1-0.5,0.1-1-0.1l-1.7-0.9l1.1-0.4l0,0l-0.7-0.3
				C225.6,46,225.5,46,225.5,46"/>
			<path class="st0" d="M207.9,52.4c-0.3,0.1-0.3,0.3-0.1,0.4c0.2,0.2,0.7,0.2,0.9,0.1c0.3-0.1,0.3-0.3,0.1-0.4
				C208.6,52.3,208.2,52.3,207.9,52.4"/>
			<path class="st0" d="M209.8,48.6c0-0.1-0.1-0.1-0.2-0.1h-0.1c-0.9,0-1.7,0.2-2.4,0.4s-1.2,0.6-1.5,0.9v0.1c0,0,0,0.1,0.1,0.1h0.5
				c0.1,0,0.1,0,0.2,0c0.3-0.3,0.7-0.6,1.3-0.8s1.3-0.3,2-0.4l0,0C209.8,48.8,209.8,48.8,209.8,48.6L209.8,48.6z"/>
			<path class="st0" d="M209.4,49.2c-0.5,0-1.1,0.1-1.5,0.3c-0.4,0.1-0.8,0.3-1,0.6c0,0,0,0,0,0.1h0.1h0.6c0.1,0,0.1,0,0.2,0
				c0.2-0.1,0.4-0.3,0.7-0.4c0.3-0.1,0.6-0.2,1-0.2c0.1,0,0.1,0,0.1-0.1l0.1-0.3c0,0,0,0,0-0.1l0,0
				C209.5,49.2,209.5,49.2,209.4,49.2"/>
		</g>
	</g>
	<path class="st2" d="M227,179.4l-10.8,4.7c-0.1,0-0.2-0.1-0.2-0.2v-0.8c0-0.1,0.1-0.2,0.2-0.2l10.8-4.7c0.1,0,0.2,0.1,0.2,0.2v0.8
		C227.2,179.3,227.1,179.4,227,179.4z"/>
	<path class="st2" d="M225.8,182.2l-8.3,3.7c-0.1,0-0.2-0.1-0.2-0.2v-0.8c0-0.1,0.1-0.2,0.2-0.2l8.3-3.7c0.1,0,0.2,0.1,0.2,0.2v0.8
		C226,182.1,225.9,182.2,225.8,182.2z"/>
	<polygon class="st3" points="218.7,186.7 221.7,187.4 224.6,184 	"/>
</g>
</svg>
